<svg width="180" height="180" viewBox="0 0 180 180" fill="none" xmlns="http://www.w3.org/2000/svg">
  <defs>
    <linearGradient id="appleHeartGradient" x1="0%" y1="0%" x2="100%" y2="100%">
      <stop offset="0%" style="stop-color:#0ea5e9;stop-opacity:1" />
      <stop offset="50%" style="stop-color:#10b981;stop-opacity:1" />
      <stop offset="100%" style="stop-color:#22d3ee;stop-opacity:1" />
    </linearGradient>
  </defs>
  <!-- Fond arrondi pour iOS -->
  <rect width="180" height="180" rx="40" fill="url(#appleHeartGradient)"/>
  <!-- Cœur centré -->
  <path 
    d="M90 155C90 155 36.5 112.5 36.5 56.25C36.5 40.5 42.75 29.25 58.5 29.25C64.35 29.25 69.75 31.5 74.25 35.1C78.75 31.5 84.15 29.25 90 29.25C105.75 29.25 112 40.5 112 56.25C112 112.5 77 155 90 155Z" 
    fill="white"
    fill-opacity="0.95"
  />
  <!-- Reflet subtil -->
  <path 
    d="M90 145C90 145 45 105 45 54C45 42 50 36 56.25 36C60.75 36 64.8 38 68.4 40.5C72 38 76.05 36 80.55 36C86.8 36 92 42 92 54C92 105 90.9 145 90 145Z" 
    fill="white"
    fill-opacity="0.3"
  />
</svg>

