<svg width="32" height="32" viewBox="0 0 32 32" fill="none" xmlns="http://www.w3.org/2000/svg">
  <defs>
    <!-- Gradient principal sky -> emerald -> cyan (couleurs du site) -->
    <linearGradient id="heartGradient" x1="0%" y1="0%" x2="100%" y2="100%">
      <stop offset="0%" style="stop-color:#0ea5e9;stop-opacity:1" />
      <stop offset="50%" style="stop-color:#10b981;stop-opacity:1" />
      <stop offset="100%" style="stop-color:#22d3ee;stop-opacity:1" />
    </linearGradient>
    <!-- Gradient pour le reflet lumineux -->
    <linearGradient id="highlightGradient" x1="0%" y1="0%" x2="100%" y2="100%">
      <stop offset="0%" style="stop-color:#ffffff;stop-opacity:0.4" />
      <stop offset="30%" style="stop-color:#ffffff;stop-opacity:0.2" />
      <stop offset="100%" style="stop-color:#ffffff;stop-opacity:0" />
    </linearGradient>
    <!-- Ombre douce -->
    <filter id="shadow">
      <feGaussianBlur in="SourceAlpha" stdDeviation="1"/>
      <feOffset dx="0" dy="1" result="offsetblur"/>
      <feComponentTransfer>
        <feFuncA type="linear" slope="0.3"/>
      </feComponentTransfer>
      <feMerge>
        <feMergeNode/>
        <feMergeNode in="SourceGraphic"/>
      </feMerge>
    </filter>
  </defs>
  
  <!-- Cœur principal avec gradient et ombre -->
  <path 
    d="M16 28C16 28 5.5 20.5 5.5 12C5.5 8 8.5 5.5 12.5 5.5C13.9 5.5 15.2 6.1 16.2 7C17.2 6.1 18.5 5.5 19.9 5.5C23.9 5.5 26.9 8 26.9 12C26.9 20.5 17 28 16 28Z" 
    fill="url(#heartGradient)"
    filter="url(#shadow)"
  />
  
  <!-- Reflet lumineux pour l'effet 3D -->
  <path 
    d="M16 25.5C16 25.5 8 18.5 8 12C8 9.5 10 7.5 12.5 7.5C13.5 7.5 14.4 8 15.2 8.6C16 8 16.9 7.5 17.9 7.5C20.4 7.5 22.4 9.5 22.4 12C22.4 18.5 16.2 25.5 16 25.5Z" 
    fill="url(#highlightGradient)"
  />
</svg>
